<svg id="visual" viewBox="0 0 900 600" width="900" height="600" xmlns="http://www.w3.org/2000/svg" xmlns:xlink="http://www.w3.org/1999/xlink" version="1.1"><path d="M0 103L82 73L164 157L245 127L327 67L409 67L491 109L573 55L655 67L736 67L818 97L900 145L900 0L818 0L736 0L655 0L573 0L491 0L409 0L327 0L245 0L164 0L82 0L0 0Z" fill="#00cc8e"></path><path d="M0 247L82 175L164 247L245 259L327 319L409 211L491 193L573 259L655 277L736 289L818 175L900 229L900 143L818 95L736 65L655 65L573 53L491 107L409 65L327 65L245 125L164 155L82 71L0 101Z" fill="#00b98a"></path><path d="M0 331L82 265L164 325L245 307L327 355L409 307L491 289L573 355L655 379L736 379L818 259L900 313L900 227L818 173L736 287L655 275L573 257L491 191L409 209L327 317L245 257L164 245L82 173L0 245Z" fill="#00a784"></path><path d="M0 409L82 307L164 391L245 415L327 445L409 379L491 349L573 427L655 445L736 445L818 367L900 373L900 311L818 257L736 377L655 377L573 353L491 287L409 305L327 353L245 305L164 323L82 263L0 329Z" fill="#00957c"></path><path d="M0 601L82 601L164 601L245 601L327 601L409 601L491 601L573 601L655 601L736 601L818 601L900 601L900 371L818 365L736 443L655 443L573 425L491 347L409 377L327 443L245 413L164 389L82 305L0 407Z" fill="#038373"></path></svg>